# xmcd
#
# Track frame offsets: 
#        150
#        6965
#        28341
#        54231
#        76397
#        98495
#        119867
#        140361
#        156341
#        180031
#        200655
#        226351
#        245430
#        267662
#
# Disc length: 3811 seconds
#
# Revision: 13
# Processed by: cddbd v1.5.2PL0 Copyright (c) Steve Scherf et al.
# Submitted via: ExactAudioCopyFreeDBPlugin 1.0
#
DISCID=bc0ee10e
DTITLE=夏韶聲 - 諳2
DYEAR=2000
DGENRE=Jazz
TTITLE0=[諳] II 序
TTITLE1=空凳
TTITLE2=結他低泣時
TTITLE3=車站
TTITLE4=永不放棄
TTITLE5=啤酒罐
TTITLE6=擔憂
TTITLE7=My friend
TTITLE8=這是愛
TTITLE9=搖擺心窩
TTITLE10=交叉點
TTITLE11=媽媽我沒有做錯
TTITLE12=車站
TTITLE13=童年時
EXTD=YEAR: 2000
EXTT0=
EXTT1=
EXTT2=
EXTT3=
EXTT4=
EXTT5=
EXTT6=
EXTT7=
EXTT8=
EXTT9=
EXTT10=
EXTT11=
EXTT12=
EXTT13=
PLAYORDER=
